{
	"asset":{
		"generator":"Khronos glTF Blender I/O v4.1.63",
		"version":"2.0"
	},
	"scene":0,
	"scenes":[
		{
			"name":"Scene",
			"nodes":[
				0
			]
		}
	],
	"nodes":[
		{
			"mesh":0,
			"name":"mr32wbs2",
			"scale":[
				0.10000000149011612,
				0.10000000149011612,
				0.10000000149011612
			]
		}
	],
	"materials":[
		{
			"doubleSided":true,
			"name":"materialmr32",
			"pbrMetallicRoughness":{
				"baseColorTexture":{
					"index":0
				},
				"roughnessFactor":0.5
			}
		}
	],
	"meshes":[
		{
			"name":"mr32wbs2",
			"primitives":[
				{
					"attributes":{
						"POSITION":0,
						"NORMAL":1
					},
					"indices":2,
					"material":0
				}
			]
		}
	],
	"textures":[
		{
			"sampler":0,
			"source":0
		}
	],
"images": [
    {
      "uri": "textures/Material.001_baseColor.jpeg"
    }
  ],
  "materials": [
    {
      "doubleSided": true,
      "name": "Material.001",
      "pbrMetallicRoughness": {
        "baseColorTexture": {
          "index": 0
        },
        "roughnessFactor": 0.5
      }
    }
  ],
	"accessors":[
		{
			"bufferView":0,
			"componentType":5126,
			"count":240596,
			"max":[
				76.75,
				40,
				66
			],
			"min":[
				-76.75,
				-40,
				-50
			],
			"type":"VEC3"
		},
		{
			"bufferView":1,
			"componentType":5126,
			"count":240596,
			"type":"VEC3"
		},
		{
			"bufferView":2,
			"componentType":5125,
			"count":1443531,
			"type":"SCALAR"
		}
	],
	"bufferViews":[
		{
			"buffer":0,
			"byteLength":2887152,
			"byteOffset":0,
			"target":34962
		},
		{
			"buffer":0,
			"byteLength":2887152,
			"byteOffset":2887152,
			"target":34962
		},
		{
			"buffer":0,
			"byteLength":5774124,
			"byteOffset":5774304,
			"target":34963
		}
	],
	"samplers":[
		{
			"magFilter":9729,
			"minFilter":9987
		}
	],
	"buffers":[
		{
			"byteLength":11548428,
			"uri":"mr32wbs2blender.bin"
		}
	]
}
